<svg height='100px' width='100px'  fill="#000000" xmlns="http://www.w3.org/2000/svg" xmlns:xlink="http://www.w3.org/1999/xlink" version="1.1" x="0px" y="0px" viewBox="0 0 164 164" enable-background="new 0 0 164 164" xml:space="preserve"><g><g><path d="M54.5,147.3h24.2c0.6,0,1-0.4,1-1s-0.4-1-1-1H54.5c-0.6,0-1,0.4-1,1S53.9,147.3,54.5,147.3z"></path></g><g><path d="M82.6,147.3h4c0.6,0,1-0.4,1-1s-0.4-1-1-1h-4c-0.6,0-1,0.4-1,1S82,147.3,82.6,147.3z"></path></g><g><path d="M90,147.3h2.6c0.6,0,1-0.4,1-1s-0.4-1-1-1H90c-0.6,0-1,0.4-1,1S89.4,147.3,90,147.3z"></path></g><g><path d="M84.3,151.2c0,0.6,0.4,1,1,1h24.2c0.6,0,1-0.4,1-1c0-0.6-0.4-1-1-1H85.3C84.8,150.2,84.3,150.6,84.3,151.2z"></path></g><g><path d="M76.4,151.2c0,0.6,0.4,1,1,1h4c0.6,0,1-0.4,1-1c0-0.6-0.4-1-1-1h-4C76.9,150.2,76.4,150.6,76.4,151.2z"></path></g><g><path d="M74,150.2h-2.6c-0.6,0-1,0.4-1,1c0,0.6,0.4,1,1,1H74c0.6,0,1-0.4,1-1C75,150.6,74.6,150.2,74,150.2z"></path></g><g><path d="M148.6,128C158,114.5,163,98.6,163,82c0-21.3-8.2-41.4-23-56.6v-3.7c0,0,0,0,0,0v-5.1c0-3.6-2.9-6.5-6.5-6.5h-14.2    C107.8,4.1,94.9,1,82,1C37.3,1,1,37.3,1,82c0,16.6,5,32.5,14.4,46l-3.3,2.7c0,0,0,0-0.1,0.1c0,0,0,0,0,0c-0.1,0.1-0.1,0.2-0.2,0.3    c0,0,0,0,0,0.1c0,0.1-0.1,0.2-0.1,0.4c0,0,0,0,0,0v7.6c0,0.6,0.4,1,1,1h12.9C40.8,154.9,60.8,163,82,163s41.2-8.1,56.4-22.8h12.9    c0.6,0,1-0.4,1-1v-7.6c0-0.3-0.2-0.7-0.4-0.8L148.6,128z M140,118.9V28.3C153.5,43,161,61.9,161,82c0,16.1-4.8,31.6-13.9,44.8    l-7.4-6.1C139.9,120.1,140,119.5,140,118.9z M138.8,122.6l9.7,7.9h-133l7.1-5.8c1,2.3,3.3,3.9,5.9,3.9h35.9c2.4,0,4.5-1.3,5.6-3.2    h63.4C135.7,125.4,137.6,124.3,138.8,122.6z M65,46.4v-5.5h64.8v44.2h-59V52.8C70.9,49.5,68.3,46.7,65,46.4z M70.9,94.3h10.8v14.2    H70.9V94.3z M70.9,122.1v-11.7h11.8c0.6,0,1-0.4,1-1V93.3c0-0.6-0.4-1-1-1H70.9v-5.2h60c0.6,0,1-0.4,1-1V39.9c0-0.6-0.4-1-1-1H64    c-0.6,0-1,0.4-1,1v6.4h-6.1V22.7h81v96.2c0,2.5-2,4.5-4.5,4.5H70.8C70.8,123,70.9,122.6,70.9,122.1z M64.4,48.3    c2.5,0,4.5,2,4.5,4.5v69.3c0,2.5-2,4.5-4.5,4.5H28.5c-2.5,0-4.5-2-4.5-4.5V52.8c0-2.5,2-4.5,4.5-4.5H64.4z M133.4,12    c2.5,0,4.5,2,4.5,4.5v4.1h-81v-4.1c0-1.5,0.7-2.8,1.8-3.6c0.8-0.6,1.7-0.9,2.7-0.9H133.4z M3,82C3,38.4,38.4,3,82,3    c11.3,0,22.4,2.4,32.6,7H61.4c-1.6,0-3,0.6-4.1,1.5c-1.5,1.2-2.4,3-2.4,5v29.8H28.5c-3.6,0-6.5,2.9-6.5,6.5v69.3    c0,0.1,0,0.3,0,0.4l-5.2,4.2C7.8,113.6,3,98.1,3,82z M82,161c-19.9,0-38.8-7.4-53.4-20.8h106.8C120.8,153.6,101.9,161,82,161z     M150.3,138.2c-16.5,0-116.9,0-136.6,0v-5.6h136.6V138.2z"></path></g><g><path d="M107.6,57.6C107.6,57.6,107.6,57.6,107.6,57.6C107.6,57.6,107.6,57.6,107.6,57.6C107.6,57.6,107.6,57.6,107.6,57.6z"></path></g><g><path d="M85.1,58.2l4.8,4.8l-4.8,4.8c-0.4,0.4-0.4,1,0,1.4l11.6,11.6c0.2,0.2,0.5,0.3,0.7,0.3c0.3,0,0.5-0.1,0.7-0.3l11.6-11.6    c0.4-0.4,0.4-1,0-1.4L105,63l4.8-4.8c0.2-0.2,0.3-0.4,0.3-0.7c0-0.3-0.1-0.5-0.3-0.7L98.1,45.2c-0.4-0.4-1-0.4-1.4,0L85.1,56.8    C84.7,57.2,84.7,57.8,85.1,58.2z M107.6,68.5L97.4,78.7L87.2,68.5l4.1-4.1l5.4,5.4c0.2,0.2,0.4,0.3,0.7,0.3c0.3,0,0.5-0.1,0.7-0.3    l5.4-5.4L107.6,68.5z M97.4,47.3l10.2,10.2c0,0,0,0,0,0c0,0,0,0,0,0c0,0,0,0,0,0c0,0,0,0,0,0c0,0,0,0-0.1,0.1    c-0.5,0.5-2.6,2.6-10,10c0,0,0,0,0,0c0,0,0,0,0,0c0,0,0,0,0,0c0,0,0,0,0,0c0,0,0,0,0,0c0,0,0,0,0,0c0,0,0,0,0,0    c0,0-0.1-0.1-0.1-0.1c0,0,0,0,0,0c0,0,0,0,0,0c-0.5-0.5-2.7-2.7-10-10L97.4,47.3z"></path></g><g><path d="M97.3,67.6C97.3,67.6,97.3,67.6,97.3,67.6C97.3,67.5,97.3,67.5,97.3,67.6z"></path></g><g><path d="M110.8,70.7l-1.8,1.8c-0.2,0.2-0.2,0.5,0,0.7c0.2,0.2,0.5,0.2,0.7,0l1.8-1.8c0.2-0.2,0.2-0.5,0-0.7    C111.3,70.5,111,70.5,110.8,70.7z"></path></g><g><path d="M113.6,69.3l2.1-2.1c0.2-0.2,0.2-0.5,0-0.7c-0.2-0.2-0.5-0.2-0.7,0l-2.1,2.1c-0.2,0.2-0.2,0.5,0,0.7    C113.1,69.5,113.4,69.5,113.6,69.3z"></path></g><g><path d="M117.1,65.1c0.2,0.2,0.5,0.2,0.7,0l1.8-1.8c0.2-0.2,0.2-0.5,0-0.7l-1.8-1.8c-0.2-0.2-0.5-0.2-0.7,0    c-0.2,0.2-0.2,0.5,0,0.7l1.4,1.4l-1.4,1.4C116.9,64.6,116.9,64.9,117.1,65.1z"></path></g><g><path d="M115,59.5c0.2,0.2,0.5,0.2,0.7,0c0.2-0.2,0.2-0.5,0-0.7l-2.1-2.1c-0.2-0.2-0.5-0.2-0.7,0c-0.2,0.2-0.2,0.5,0,0.7L115,59.5    z"></path></g><g><path d="M110.8,55.4c0.2,0.2,0.5,0.2,0.7,0c0.2-0.2,0.2-0.5,0-0.7l-1.8-1.8c-0.2-0.2-0.5-0.2-0.7,0c-0.2,0.2-0.2,0.5,0,0.7    L110.8,55.4z"></path></g><g><path d="M85.1,73.1c0.2,0.2,0.5,0.2,0.7,0c0.2-0.2,0.2-0.5,0-0.7L84,70.7c-0.2-0.2-0.5-0.2-0.7,0c-0.2,0.2-0.2,0.5,0,0.7    L85.1,73.1z"></path></g><g><path d="M81.2,69.3c0.2,0.2,0.5,0.2,0.7,0c0.2-0.2,0.2-0.5,0-0.7l-2.1-2.1c-0.2-0.2-0.5-0.2-0.7,0c-0.2,0.2-0.2,0.5,0,0.7    L81.2,69.3z"></path></g><g><path d="M77.1,65.1c0.1,0.1,0.2,0.1,0.4,0.1s0.3,0,0.4-0.1c0.2-0.2,0.2-0.5,0-0.7L76.4,63l1.4-1.4c0.2-0.2,0.2-0.5,0-0.7    c-0.2-0.2-0.5-0.2-0.7,0l-1.8,1.8c-0.2,0.2-0.2,0.5,0,0.7L77.1,65.1z"></path></g><g><path d="M79.9,59.5l2.1-2.1c0.2-0.2,0.2-0.5,0-0.7c-0.2-0.2-0.5-0.2-0.7,0l-2.1,2.1c-0.2,0.2-0.2,0.5,0,0.7S79.7,59.7,79.9,59.5z"></path></g><g><path d="M84,55.4l1.8-1.8c0.2-0.2,0.2-0.5,0-0.7c-0.2-0.2-0.5-0.2-0.7,0l-1.8,1.8c-0.2,0.2-0.2,0.5,0,0.7    C83.5,55.6,83.8,55.6,84,55.4z"></path></g><g><path d="M106.8,92.3H88.1c-0.6,0-1,0.4-1,1v16.2c0,0.6,0.4,1,1,1h18.7c0.6,0,1-0.4,1-1V93.3C107.8,92.8,107.3,92.3,106.8,92.3z     M105.8,108.5H89.1V94.3h16.7V108.5z"></path></g><g><path d="M27.5,53.9v62c0,0.6,0.4,1,1,1h35.8c0.6,0,1-0.4,1-1v-62c0-0.6-0.4-1-1-1H28.5C28,52.9,27.5,53.3,27.5,53.9z M29.5,54.9    h33.8v60H29.5V54.9z"></path></g><g><path d="M53.9,87.3l-2.5-2.5l2.5-2.5c0.4-0.4,0.4-1,0-1.4l-6.7-6.7c-0.4-0.4-1-0.4-1.4,0L39.1,81c-0.4,0.4-0.4,1,0,1.4l2.5,2.5    l-2.5,2.5c-0.4,0.4-0.4,1,0,1.4l6.7,6.7c0.2,0.2,0.4,0.3,0.7,0.3c0.3,0,0.5-0.1,0.7-0.3l6.7-6.7C54.3,88.3,54.3,87.7,53.9,87.3z     M41.2,81.7l5.3-5.3l5.3,5.3L50,83.4l-2.8-2.8c-0.4-0.4-1-0.4-1.4,0l-2.1,2.1l-0.7,0.7L41.2,81.7z M46.5,93.3L41.2,88l2.5-2.5    c0,0,0,0,0,0l1.4-1.4l1.4-1.4l2.8,2.8c0,0,0,0,0,0l2.5,2.5L46.5,93.3z"></path></g><g><path d="M54.2,89.3l-1,1c-0.1,0.1-0.1,0.3,0,0.4c0.1,0.1,0.3,0.1,0.4,0l1-1c0.1-0.1,0.1-0.3,0-0.4C54.5,89.2,54.3,89.2,54.2,89.3z    "></path></g><g><path d="M56.6,86.9l-1.2,1.2c-0.1,0.1-0.1,0.3,0,0.4c0.1,0.1,0.3,0.1,0.4,0l1.2-1.2c0.1-0.1,0.1-0.3,0-0.4    C56.9,86.8,56.7,86.8,56.6,86.9z"></path></g><g><path d="M58.2,83.6c-0.1-0.1-0.3-0.1-0.4,0c-0.1,0.1-0.1,0.3,0,0.4l0.8,0.8l-0.8,0.8c-0.1,0.1-0.1,0.3,0,0.4    c0.1,0.1,0.3,0.1,0.4,0l1-1c0.1-0.1,0.1-0.3,0-0.4L58.2,83.6z"></path></g><g><path d="M55.8,81.2c-0.1-0.1-0.3-0.1-0.4,0c-0.1,0.1-0.1,0.3,0,0.4l1.2,1.2c0.1,0.1,0.3,0.1,0.4,0c0.1-0.1,0.1-0.3,0-0.4    L55.8,81.2z"></path></g><g><path d="M53.6,79c-0.1-0.1-0.3-0.1-0.4,0c-0.1,0.1-0.1,0.3,0,0.4l1,1c0.1,0.1,0.3,0.1,0.4,0s0.1-0.3,0-0.4L53.6,79z"></path></g><g><path d="M38.7,89.3c-0.1-0.1-0.3-0.1-0.4,0c-0.1,0.1-0.1,0.3,0,0.4l1,1c0.3,0.3,0.7-0.1,0.4-0.4L38.7,89.3z"></path></g><g><path d="M36.3,86.9c-0.1-0.1-0.3-0.1-0.4,0c-0.1,0.1-0.1,0.3,0,0.4l1.2,1.2c0.1,0.1,0.3,0.1,0.4,0c0.1-0.1,0.1-0.3,0-0.4    L36.3,86.9z"></path></g><g><path d="M35.1,83.6c-0.1-0.1-0.3-0.1-0.4,0l-1,1c-0.1,0.1-0.1,0.3,0,0.4l1,1c0.1,0.1,0.3,0.1,0.4,0c0.1-0.1,0.1-0.3,0-0.4    l-0.8-0.8l0.8-0.8C35.2,83.9,35.2,83.7,35.1,83.6z"></path></g><g><path d="M37.1,81.2l-1.2,1.2c-0.1,0.1-0.1,0.3,0,0.4c0.1,0.1,0.3,0.1,0.4,0l1.2-1.2c0.1-0.1,0.1-0.3,0-0.4    C37.4,81.1,37.2,81.1,37.1,81.2z"></path></g><g><path d="M38.7,80.4l1-1c0.1-0.1,0.1-0.3,0-0.4c-0.1-0.1-0.3-0.1-0.4,0l-1,1c-0.1,0.1-0.1,0.3,0,0.4S38.6,80.5,38.7,80.4z"></path></g><g><path d="M130.9,92.3h-18.7c-0.6,0-1,0.4-1,1v16.2c0,0.6,0.4,1,1,1h18.7c0.6,0,1-0.4,1-1V93.3C131.9,92.8,131.4,92.3,130.9,92.3z     M129.9,108.5h-16.7V94.3h16.7V108.5z"></path></g><g><path d="M81.7,28.1H64c-0.6,0-1,0.4-1,1c0,0.6,0.4,1,1,1h17.7c0.6,0,1-0.4,1-1C82.7,28.5,82.3,28.1,81.7,28.1z"></path></g><g><path d="M106.3,28.1H88.6c-0.6,0-1,0.4-1,1c0,0.6,0.4,1,1,1h17.7c0.6,0,1-0.4,1-1C107.3,28.5,106.8,28.1,106.3,28.1z"></path></g><g><path d="M130.9,28.1h-17.7c-0.6,0-1,0.4-1,1c0,0.6,0.4,1,1,1h17.7c0.6,0,1-0.4,1-1C131.9,28.5,131.4,28.1,130.9,28.1z"></path></g><g><path d="M63.7,19.3c1.6,0,3-1.3,3-3c0-1.6-1.3-3-3-3c-1.6,0-3,1.3-3,3C60.8,18,62.1,19.3,63.7,19.3z M63.7,15.4c0.5,0,1,0.4,1,1    c0,0.5-0.4,1-1,1c-0.5,0-1-0.4-1-1C62.8,15.8,63.2,15.4,63.7,15.4z"></path></g><g><path d="M71.5,19.4c1.7,0,3-1.3,3-3c0-1.7-1.3-3-3-3s-3,1.3-3,3C68.5,18,69.9,19.4,71.5,19.4z M71.5,15.4c0.6,0,1,0.4,1,1    c0,0.6-0.4,1-1,1c-0.6,0-1-0.4-1-1C70.5,15.8,71,15.4,71.5,15.4z"></path></g><g><path d="M79.4,19.4c1.7,0,3-1.3,3-3c0-1.7-1.3-3-3-3c-1.7,0-3,1.3-3,3C76.4,18,77.7,19.4,79.4,19.4z M79.4,15.4c0.6,0,1,0.4,1,1    c0,0.6-0.4,1-1,1c-0.6,0-1-0.4-1-1C78.4,15.8,78.8,15.4,79.4,15.4z"></path></g><g><path d="M89.4,19.1h42c1.5,0,2.8-1.2,2.8-2.8s-1.2-2.8-2.8-2.8h-42c-1.5,0-2.8,1.2-2.8,2.8S87.8,19.1,89.4,19.1z M89.4,15.6h42    c0.4,0,0.8,0.4,0.8,0.8c0,0.4-0.4,0.8-0.8,0.8h-42c-0.4,0-0.8-0.4-0.8-0.8C88.6,15.9,88.9,15.6,89.4,15.6z"></path></g><g><path d="M49.3,118.1h-5.7c-2,0-3.6,1.6-3.6,3.6c0,2,1.6,3.6,3.6,3.6h5.7c2,0,3.6-1.6,3.6-3.6C52.9,119.7,51.3,118.1,49.3,118.1z     M49.3,123.2h-5.7c-0.9,0-1.6-0.7-1.6-1.6c0-0.9,0.7-1.6,1.6-1.6h5.7c0.9,0,1.6,0.7,1.6,1.6C50.9,122.5,50.2,123.2,49.3,123.2z"></path></g></g></svg>