<svg height='100px' width='100px'  fill="#000000" xmlns="http://www.w3.org/2000/svg" xmlns:xlink="http://www.w3.org/1999/xlink" version="1.1" x="0px" y="0px" viewBox="0 0 164 164" enable-background="new 0 0 164 164" xml:space="preserve"><g><g><path d="M78.9,142.8c0-0.5-0.4-0.9-0.9-0.9H55.4c-0.5,0-0.9,0.4-0.9,0.9c0,0.5,0.4,0.9,0.9,0.9H78    C78.5,143.7,78.9,143.3,78.9,142.8z"></path></g><g><path d="M86.3,142.8c0-0.5-0.4-0.9-0.9-0.9h-3.7c-0.5,0-0.9,0.4-0.9,0.9c0,0.5,0.4,0.9,0.9,0.9h3.7    C85.8,143.7,86.3,143.3,86.3,142.8z"></path></g><g><path d="M88.5,143.7H91c0.5,0,0.9-0.4,0.9-0.9c0-0.5-0.4-0.9-0.9-0.9h-2.5c-0.5,0-0.9,0.4-0.9,0.9C87.6,143.3,88,143.7,88.5,143.7    z"></path></g><g><path d="M106.8,146.4H84.2c-0.5,0-0.9,0.4-0.9,0.9c0,0.5,0.4,0.9,0.9,0.9h22.6c0.5,0,0.9-0.4,0.9-0.9    C107.7,146.9,107.3,146.4,106.8,146.4z"></path></g><g><path d="M80.5,146.4h-3.7c-0.5,0-0.9,0.4-0.9,0.9c0,0.5,0.4,0.9,0.9,0.9h3.7c0.5,0,0.9-0.4,0.9-0.9    C81.5,146.9,81.1,146.4,80.5,146.4z"></path></g><g><path d="M73.6,146.4h-2.5c-0.5,0-0.9,0.4-0.9,0.9c0,0.5,0.4,0.9,0.9,0.9h2.5c0.5,0,0.9-0.4,0.9-0.9    C74.6,146.9,74.1,146.4,73.6,146.4z"></path></g><g><path d="M111.5,111.9l18.9-4.4c0.5-0.1,0.8-0.6,0.7-1.1c-0.1-0.5-0.6-0.8-1.1-0.7l-18.9,4.4c-0.5,0.1-0.8,0.6-0.7,1.1    C110.5,111.8,111,112,111.5,111.9z"></path></g><g><path d="M162.9,87L162.9,87C162.9,86.9,162.9,86.9,162.9,87l-6.6-12.1c-1.4-13.5-6.4-26.3-14.5-37.1h1.7c0.3,0,0.5-0.1,0.7-0.3    l8-8.7c0.3-0.4,0.3-0.9,0-1.3l-8-8.7c-0.2-0.2-0.4-0.3-0.7-0.3h-22.8c-9.2-5.7-19.4-9.3-30.1-10.6c-2.9-1.4-6.2-2.2-9.6-2.2    c-3.4,0-6.7,0.8-9.6,2.2c-23.3,3-44.1,16.9-55.9,37.3l-0.8-0.3c-0.2-0.1-0.4-0.1-0.6,0L1.7,48.2c-0.3,0.1-0.5,0.3-0.6,0.5    C1,49,1,49.3,1.1,49.5l6.1,11.4c0.1,0.2,0.3,0.3,0.5,0.4l0.8,0.3c-2,6.8-3,14-3,21.2c0,41.6,33.9,75.6,75.6,75.6    c40.2,0,73.1-31.2,75.5-71.1l5.3,1C162.7,88.5,163.2,87.6,162.9,87z M143.9,75.3l14.2,10.4l-27.7-5.4c2.4-4.8,0.9-9-1.1-11.9    l4.7-6.5c4.5,1.3,8.5,0.5,11.7-2.6l13.5,24.8L145,73.8c-0.4-0.3-1-0.2-1.3,0.2C143.4,74.4,143.5,75,143.9,75.3z M130.2,55.7    L130,56l-9,12.3l-17.5-12.8V33.5l28,20.5L130.2,55.7L130.2,55.7z M103.5,101.4l24.3-5.7c4.3-1,8.8-0.3,12.5,2.1    c3.5,2.2,6,5.5,7.1,9.4l-44.2,10.3C103.6,115,103.4,114.3,103.5,101.4z M131.1,57.5l2.6,1.9c-0.8,1.2-5,6.9-6.9,9.4l-2.6-1.9    L131.1,57.5z M153.8,70.2l-6.9-12.6l-0.1-0.2c-0.3-0.5-1.1-0.6-1.5-0.2c-2.6,3.1-6,4.1-10,3.1l0.4-0.6c0.3-0.4,0.2-1-0.2-1.3    l-3.3-2.4l1.2-1.7c0.3-0.4,0.2-1-0.2-1.3l-20.9-15.3h27.1C146.9,47.3,151.8,58.4,153.8,70.2z M150.3,28l-7.1,7.8h-33.3l-6.4-4.7    V28c0-2.7-0.5-5.4-1.4-7.8h41.1L150.3,28z M117,18.4h-15.8c-1.5-3.2-3.8-5.9-6.5-8.1C102.6,11.7,110.1,14.5,117,18.4z M101.6,28    c-0.1,90.2,0.3,86.9-0.4,90.5c0,0,0,0,0,0c-1.8,9.5-10.2,16.7-20.2,16.7c-11.4,0-20.6-9.2-20.6-20.6V28c0-11.4,9.2-20.6,20.6-20.6    S101.6,16.7,101.6,28z M67.3,10.3C62,14.4,58.5,20.8,58.5,28v35.3L17.3,45.8C28,27.3,46.4,14.3,67.3,10.3z M15.2,47l7.9,3.3    l-0.2,15.4L15,62.4L15.2,47z M25,51.1l7.9,3.3l-0.2,15.4l-7.9-3.3L25,51.1z M34.8,55.2l7.9,3.3L42.4,74l-7.9-3.3L34.8,55.2z     M44.5,59.4l7.9,3.3L52.2,78l0,0.2l-7.9-3.3L44.5,59.4z M58.5,80.8L54,78.9l0.2-15.4l4.3,1.8V80.8z M52.7,80.4    C52.7,80.4,52.7,80.4,52.7,80.4l5.8,2.5V89l-31.2,16.4l-7.2-2.6l1.9-7.4l29.5-15.5L52.7,80.4z M3.3,49.6l10.1-2.9l-0.2,14.8    l-4.5-1.9L3.3,49.6z M7.3,82.8c0-7,1-13.8,2.9-20.4l39.1,16.6L20.8,93.9c-0.2,0.1-0.4,0.3-0.5,0.6l-2.3,8.6    c-0.1,0.5,0.1,0.9,0.6,1.1l8.4,3.1c0.1,0,0.2,0.1,0.3,0.1c0.1,0,0.3,0,0.4-0.1l30.7-16.1v23.6c0,9.2,5.6,17.1,13.5,20.6H29.3    C15.7,121.9,7.3,103.3,7.3,82.8z M31.3,137.1H131c-13.1,12.1-30.7,19.4-49.9,19.4C61.9,156.6,44.4,149.2,31.3,137.1z M133,135.3    H90c6.5-2.8,11.4-8.7,13-15.8l45.9-10.7c0.5-0.1,0.8-0.6,0.7-1.1c-1.1-4.8-4-8.9-8.2-11.5c-4.2-2.6-9.1-3.4-13.9-2.3l-23.9,5.6    V57.8l17.1,12.6c0.4,0.3,1,0.2,1.3-0.2l1.2-1.7l3.3,2.4c0.4,0.3,1,0.2,1.3-0.2l0.4-0.6c2.1,3.5,2.2,7,0,10.4    c-0.1,0.1-0.1,0.3-0.1,0.5c0,0.4,0.3,0.8,0.7,0.9l25.9,5C153.7,105.9,145.5,122.9,133,135.3z"></path></g><g><path d="M81,37.6c5.3,0,9.6-4.3,9.6-9.6c0-5.3-4.3-9.6-9.6-9.6c-5.3,0-9.6,4.3-9.6,9.6C71.4,33.3,75.7,37.6,81,37.6z M81,20.3    c4.3,0,7.8,3.5,7.8,7.8c0,4.3-3.5,7.7-7.8,7.7c-4.3,0-7.7-3.5-7.7-7.7C73.3,23.8,76.7,20.3,81,20.3z"></path></g><g><path d="M81,124.3c5.3,0,9.6-4.3,9.6-9.6c0-5.3-4.3-9.6-9.6-9.6c-5.3,0-9.6,4.3-9.6,9.6C71.4,120,75.7,124.3,81,124.3z M81,106.9    c4.3,0,7.8,3.5,7.8,7.7c0,4.3-3.5,7.8-7.8,7.8c-4.3,0-7.7-3.5-7.7-7.8C73.3,110.4,76.7,106.9,81,106.9z"></path></g></g></svg>