<svg height='100px' width='100px'  fill="#000000" xmlns="http://www.w3.org/2000/svg" xmlns:xlink="http://www.w3.org/1999/xlink" version="1.1" x="0px" y="0px" viewBox="0 0 164 164" enable-background="new 0 0 164 164" xml:space="preserve"><g><g><path d="M163,82c0-15.9-4.6-31.2-13.3-44.4h2.5c4.3,0,7.7-3.5,7.7-7.7c0-1-0.2-1.9-0.5-2.8c-1.1-2.9-4-4.9-7.2-4.9h-15.7    C121.6,8.5,102.3,1,82,1S42.4,8.5,27.5,22.1H11.8c-4.3,0-7.7,3.5-7.7,7.7c0,3.2,1.9,6,4.9,7.2c1.9,0.8,3.4,0.5,5.3,0.5    C5.6,50.8,1,66.1,1,82c0,44.5,36.3,81,81,81C126.8,163,163,126.4,163,82z M137.4,138.2H127c1.5-2,1.2-4.7-0.5-6.3l-11-11h18.1    c8.8,0,16-7.2,16-16V41.1C157.1,53.4,161,67.5,161,82C161,104,152,123.9,137.4,138.2z M121,137.4l-16.5-16.5h8.1l12.4,12.4    C127.8,136,123.6,140,121,137.4z M38.9,137.4c-1.1-1.1-1.1-2.9,0-4.1l12.4-12.4h8.1L43,137.4c-0.5,0.5-1.3,0.8-2,0.8    C40.9,138.2,39.8,138.3,38.9,137.4z M16.4,38c0.1-0.1,0.2-0.3,0.3-0.4h130.6c0.1,0.1,0.2,0.3,0.3,0.4v66.9c0,7.7-6.3,14-14,14    H30.4c-5.4,0-10.2-3-12.5-7.8c-1-1.9-1.4-4-1.4-6.2V38z M62.3,120.9h39.4l17.3,17.3H45L62.3,120.9z M82,3c19,0,37.2,6.8,51.5,19.1    H86.9V13c0-2.7-2.2-4.9-4.9-4.9s-4.9,2.2-4.9,4.9v9.1H30.5C44.8,9.8,63,3,82,3z M79.1,22.1V13c0-1.6,1.3-2.9,2.9-2.9    s2.9,1.3,2.9,2.9v9.1H79.1z M9.7,35.2C7.5,34.3,6,32.2,6,29.8c0-3.2,2.6-5.7,5.7-5.7h140.5c2.3,0,4.5,1.5,5.3,3.7    c0.3,0.6,0.4,1.3,0.4,2.1c0,3.2-2.6,5.7-5.7,5.7C2.4,35.6,11.2,35.8,9.7,35.2z M3,82c0-14.5,3.9-28.6,11.4-40.9v63.8    c0,2.5,0.6,4.9,1.7,7.1c2.7,5.5,8.2,8.9,14.3,8.9h18.1l-11,11c-1.7,1.7-1.9,4.4-0.5,6.3H26.6C12,123.9,3,104,3,82z M28.7,140.2    c11.6,0,93.1,0,106.7,0C121.3,153.1,102.5,161,82,161S42.7,153.1,28.7,140.2z"></path></g><g><path d="M79.7,146.3c0-0.6-0.4-1-1-1H54.5c-0.6,0-1,0.4-1,1c0,0.6,0.4,1,1,1h24.2C79.2,147.3,79.7,146.8,79.7,146.3z"></path></g><g><path d="M87.6,146.3c0-0.6-0.4-1-1-1h-4c-0.6,0-1,0.4-1,1c0,0.6,0.4,1,1,1h4C87.1,147.3,87.6,146.8,87.6,146.3z"></path></g><g><path d="M90,147.3h2.6c0.6,0,1-0.4,1-1c0-0.6-0.4-1-1-1H90c-0.6,0-1,0.4-1,1C89,146.8,89.4,147.3,90,147.3z"></path></g><g><path d="M109.5,150.2H85.3c-0.6,0-1,0.4-1,1c0,0.6,0.4,1,1,1h24.2c0.6,0,1-0.4,1-1C110.5,150.6,110.1,150.2,109.5,150.2z"></path></g><g><path d="M81.4,150.2h-4c-0.6,0-1,0.4-1,1c0,0.6,0.4,1,1,1h4c0.6,0,1-0.4,1-1C82.4,150.6,82,150.2,81.4,150.2z"></path></g><g><path d="M74,150.2h-2.6c-0.6,0-1,0.4-1,1c0,0.6,0.4,1,1,1H74c0.6,0,1-0.4,1-1C75,150.6,74.6,150.2,74,150.2z"></path></g><g><path d="M35.9,79.9h21.1c0.6,0,1-0.4,1-1v-3h9.9c0.3,3.8,2,7.1,4.7,9.5v3.3h-7.7V85c0-0.6-0.4-1-1-1H42.8c-0.6,0-1,0.4-1,1v8    c0,0.6,0.4,1,1,1h21.1c0.6,0,1-0.4,1-1v-2.3h8.7c0.6,0,1-0.4,1-1v-2.8c1.9,1.2,4.1,1.9,6.4,2.1v7.8h-9.6c-0.6,0-1,0.4-1,1v8    c0,0.6,0.4,1,1,1h21.1c0.6,0,1-0.4,1-1v-8c0-0.6-0.4-1-1-1H83v-7.8c2.3-0.2,4.5-0.9,6.4-2.1v2.8c0,0.6,0.4,1,1,1h8.7V93    c0,0.6,0.4,1,1,1h21.1c0.6,0,1-0.4,1-1v-8c0-0.6-0.4-1-1-1h-21.1c-0.6,0-1,0.4-1,1v3.8h-7.7v-3.3c2.7-2.4,4.4-5.7,4.7-9.5h9.9v3    c0,0.6,0.4,1,1,1h21.1c0.6,0,1-0.4,1-1v-8c0-0.6-0.4-1-1-1h-21.1c-0.6,0-1,0.4-1,1v3h-9.9c-0.3-3.8-2-7.1-4.7-9.5V61h7.7v3.8    c0,0.6,0.4,1,1,1h21.1c0.6,0,1-0.4,1-1v-8c0-0.6-0.4-1-1-1h-21.1c-0.6,0-1,0.4-1,1V59h-8.7c-0.6,0-1,0.4-1,1v2.8    c-1.9-1.2-4.1-1.9-6.4-2.1v-7.8h9.6c0.6,0,1-0.4,1-1v-8c0-0.6-0.4-1-1-1H71.4c-0.6,0-1,0.4-1,1v8c0,0.6,0.4,1,1,1H81v7.8    c-2.3,0.2-4.5,0.9-6.4,2.1V60c0-0.6-0.4-1-1-1h-8.7v-2.3c0-0.6-0.4-1-1-1H42.8c-0.6,0-1,0.4-1,1v8c0,0.6,0.4,1,1,1h21.1    c0.6,0,1-0.4,1-1V61h7.7v3.3c-2.7,2.4-4.4,5.7-4.7,9.5h-9.9v-3c0-0.6-0.4-1-1-1H35.9c-0.6,0-1,0.4-1,1v8    C34.9,79.4,35.4,79.9,35.9,79.9z M62.9,92H43.8v-6h19.1V92z M91.6,104.8H72.4v-6h19.1V104.8z M101.1,86h19.1v6h-19.1V86z     M107.9,71.9h19.1v6h-19.1V71.9z M101.1,57.7h19.1v6h-19.1V57.7z M72.4,44.9h19.1v6H72.4V44.9z M62.9,63.8H43.8v-6h19.1V63.8z     M82,62.7c6.7,0,12.1,5.4,12.1,12.1C94.1,81.6,88.7,87,82,87s-12.1-5.4-12.1-12.1C69.9,68.2,75.3,62.7,82,62.7z M36.9,71.9h19.1v6    H36.9V71.9z"></path></g></g></svg>