<?xml version="1.0" encoding="utf-8"?>
<!-- Generator: Adobe Illustrator 23.0.4, SVG Export Plug-In . SVG Version: 6.00 Build 0)  -->
<svg version="1.1" id="Layer_1" xmlns="http://www.w3.org/2000/svg" xmlns:xlink="http://www.w3.org/1999/xlink" x="0px" y="0px"
	 viewBox="0 0 356 146" style="enable-background:new 0 0 356 146;" xml:space="preserve">
<style type="text/css">
	.st0{fill:#FFFFFF;}
	.st1{fill:url(#SVGID_1_);}
</style>
<g>
	<path class="st0" d="M149.7,77h-8.2l-2.7-8.7c-0.3-1-0.6-1.8-1.1-2.6c-0.4-0.8-0.9-1.5-1.6-2.1c-0.6-0.6-1.4-1-2.2-1.3
		s-1.8-0.5-3-0.5h-2.8V77h-7.3V38.6h15.1c1.6,0,3.1,0.3,4.6,0.8c1.4,0.6,2.6,1.3,3.6,2.3s1.8,2.2,2.4,3.5c0.6,1.3,0.9,2.8,0.9,4.4
		c0,1.1-0.2,2.2-0.5,3.3s-0.8,2-1.5,2.9c-0.6,0.9-1.4,1.7-2.3,2.4c-0.9,0.7-1.8,1.2-2.9,1.6c1.2,0.4,2.2,1.1,3,1.9
		c0.8,0.8,1.4,1.9,1.8,3c0.4,1.1,0.9,2.2,1.2,3.3c0.4,1.1,0.9,2.5,1.4,4.2c0.4,1.1,0.7,2,1,2.7C149,75.8,149.3,76.4,149.7,77z
		 M140,50.2c0-0.9-0.2-1.7-0.5-2.4s-0.8-1.4-1.4-1.9c-0.6-0.5-1.3-1-2-1.3c-0.8-0.3-1.6-0.5-2.5-0.5h-5.4v12h5.4
		c0.9,0,1.7-0.1,2.5-0.4c0.8-0.3,1.5-0.7,2-1.2c0.6-0.5,1-1.1,1.4-1.8C139.8,51.9,140,51.1,140,50.2z"/>
	<path class="st0" d="M182,63.1c0,0.4,0,0.9-0.1,1.4c0,0.5-0.1,1-0.2,1.5h-22.2c0.5,1.6,1.5,3,2.8,4.2c1.3,1.1,3,1.7,5.1,1.7
		c1.2,0,2.5-0.2,3.7-0.6s2.3-1,3.1-1.8l4.4,4.4c-1.9,1.4-3.8,2.5-5.6,3c-1.8,0.6-3.8,0.9-5.8,0.9c-2.1,0-4-0.4-5.8-1.2
		c-1.8-0.8-3.4-1.8-4.7-3.1c-1.3-1.3-2.4-2.9-3.1-4.6c-0.8-1.8-1.2-3.7-1.2-5.7s0.4-3.9,1.2-5.7s1.8-3.3,3.2-4.6
		c1.3-1.3,2.9-2.4,4.7-3.1c1.8-0.8,3.7-1.2,5.8-1.2c2,0,3.8,0.4,5.6,1.1c1.8,0.7,3.4,1.7,4.8,3c1.4,1.3,2.5,2.8,3.3,4.6
		C181.6,59,182,60.9,182,63.1z M174.7,60.4c-0.5-1.8-1.5-3.2-2.9-4.2c-1.4-1.1-3-1.6-4.7-1.6s-3.3,0.5-4.7,1.6s-2.3,2.5-2.9,4.2
		H174.7z"/>
	<path class="st0" d="M211.3,72.9c-1.4,1.6-3.1,2.8-5.1,3.6c-2,0.8-4,1.2-6.2,1.2c-2,0-3.9-0.4-5.7-1.1s-3.3-1.7-4.7-3
		s-2.4-2.8-3.1-4.6c-0.8-1.8-1.1-3.7-1.1-5.8c0-2,0.4-4,1.1-5.7c0.8-1.8,1.8-3.3,3.1-4.6s2.8-2.3,4.6-3.1s3.7-1.1,5.8-1.1
		s4.1,0.4,6,1.1c1.9,0.8,3.6,1.9,5,3.5l-4.7,4.7c-0.7-0.9-1.6-1.7-2.6-2.3s-2.2-0.9-3.7-0.9c-1.1,0-2.1,0.2-3,0.7s-1.8,1.1-2.5,1.8
		c-0.7,0.8-1.3,1.6-1.7,2.7c-0.4,1-0.6,2.1-0.6,3.3c0,1.2,0.2,2.2,0.6,3.3c0.4,1,1,1.9,1.7,2.7c0.7,0.8,1.5,1.4,2.5,1.8s2,0.7,3,0.7
		c1.4,0,2.6-0.3,3.7-1c1.1-0.7,2-1.5,2.7-2.5L211.3,72.9z"/>
	<path class="st0" d="M243.4,63.1c0,0.4,0,0.9-0.1,1.4c0,0.5-0.1,1-0.2,1.5h-22.2c0.5,1.6,1.5,3,2.8,4.2c1.3,1.1,3,1.7,5.1,1.7
		c1.2,0,2.5-0.2,3.7-0.6s2.3-1,3.1-1.8l4.4,4.4c-1.9,1.4-3.8,2.5-5.6,3c-1.8,0.6-3.8,0.9-5.8,0.9c-2.1,0-4-0.4-5.8-1.2
		c-1.8-0.8-3.4-1.8-4.7-3.1c-1.3-1.3-2.4-2.9-3.1-4.6c-0.8-1.8-1.2-3.7-1.2-5.7s0.4-3.9,1.2-5.7s1.8-3.3,3.2-4.6
		c1.3-1.3,2.9-2.4,4.7-3.1c1.8-0.8,3.7-1.2,5.8-1.2c2,0,3.8,0.4,5.6,1.1c1.8,0.7,3.4,1.7,4.8,3c1.4,1.3,2.5,2.8,3.3,4.6
		C243,59,243.4,60.9,243.4,63.1z M236.1,60.4c-0.5-1.8-1.5-3.2-2.9-4.2c-1.4-1.1-3-1.6-4.7-1.6s-3.3,0.5-4.7,1.6s-2.3,2.5-2.9,4.2
		H236.1z"/>
	<path class="st0" d="M274.4,63.2c0,2-0.3,3.8-1,5.6s-1.6,3.3-2.8,4.6c-1.2,1.3-2.6,2.4-4.2,3.2c-1.6,0.8-3.4,1.2-5.4,1.2
		c-1.2,0-2.4-0.2-3.4-0.5c-1.1-0.3-2.1-0.9-3-1.6v13.4h-7V49.2h7v1.4c0.8-0.6,1.8-1.2,2.9-1.5c1.1-0.4,2.3-0.6,3.5-0.6
		c1.7,0,3.3,0.4,4.9,1.1c1.6,0.8,3,1.8,4.3,3.1c1.2,1.3,2.2,2.9,3,4.7C274,59.2,274.4,61.1,274.4,63.2z M267.3,63.2
		c0-1.3-0.2-2.5-0.6-3.6s-0.9-2-1.6-2.7c-0.7-0.8-1.5-1.3-2.5-1.7c-0.9-0.4-2-0.6-3.2-0.6c-0.7,0-1.6,0.2-2.5,0.5s-1.7,0.7-2.4,1.2
		v13.3c1.5,1.4,3.2,2.1,5.1,2.1c1.1,0,2.1-0.2,3.1-0.6c0.9-0.4,1.8-1,2.4-1.8c0.7-0.8,1.2-1.6,1.6-2.7
		C267.1,65.6,267.3,64.4,267.3,63.2z"/>
	<path class="st0" d="M294.1,76.4c-0.7,0.4-1.5,0.8-2.4,1s-1.9,0.3-2.8,0.3c-1.6,0-3-0.2-4.1-0.6s-2-1-2.7-1.8s-1.2-1.9-1.5-3.2
		c-0.3-1.3-0.5-2.8-0.5-4.5V55.4h-3.6v-2.6c2.2-1.1,4.1-2.7,5.7-4.7c1.5-2,2.5-4.3,2.9-7.1h2v8.1h7v6.2h-7V68c0,1.4,0.3,2.3,0.9,2.8
		c0.6,0.4,1.3,0.7,2.2,0.7c0.5,0,1.2-0.1,2-0.3s1.4-0.5,2-1v6.2H294.1z"/>
	<path class="st0" d="M326.9,63.1c0,2.1-0.4,4-1.2,5.8c-0.8,1.8-1.8,3.3-3.2,4.6c-1.3,1.3-2.9,2.3-4.7,3.1c-1.8,0.8-3.7,1.1-5.8,1.1
		c-2,0-4-0.4-5.8-1.1c-1.8-0.8-3.4-1.8-4.7-3.1c-1.3-1.3-2.4-2.9-3.2-4.6c-0.8-1.8-1.2-3.7-1.2-5.7c0-2,0.4-3.9,1.2-5.7
		c0.8-1.8,1.8-3.3,3.2-4.7c1.3-1.3,2.9-2.4,4.7-3.1c1.8-0.8,3.7-1.1,5.7-1.1s4,0.4,5.8,1.1c1.8,0.8,3.4,1.8,4.7,3.1
		c1.3,1.3,2.4,2.8,3.2,4.6C326.5,59.2,326.9,61.1,326.9,63.1z M320,63.1c0-1.2-0.2-2.3-0.6-3.3s-1-1.9-1.7-2.7s-1.6-1.4-2.5-1.8
		c-1-0.4-2-0.6-3.1-0.6s-2.1,0.2-3.1,0.6c-1,0.4-1.8,1-2.5,1.8s-1.3,1.7-1.7,2.7c-0.4,1-0.6,2.1-0.6,3.3c0,1.2,0.2,2.3,0.6,3.3
		s1,1.9,1.7,2.7c0.7,0.8,1.6,1.4,2.5,1.8c1,0.4,2,0.6,3.1,0.6s2.1-0.2,3.1-0.6s1.8-1,2.5-1.8s1.3-1.7,1.7-2.7
		C319.8,65.4,320,64.3,320,63.1z"/>
	<path class="st0" d="M351.1,52.1l-3.7,5.9c-0.7-0.7-1.4-1.4-2.2-1.9c-0.8-0.6-1.6-0.8-2.5-0.8c-0.4,0-0.9,0.1-1.5,0.3
		c-0.5,0.2-1,0.6-1.5,1c-0.5,0.5-0.9,1.1-1.2,1.9c-0.3,0.8-0.5,1.8-0.5,2.9V77h-6.9V49.3h6.9v3c0.8-1.2,1.8-2.1,2.8-2.7
		c1-0.6,2.1-1,3.4-1c1.2,0,2.4,0.3,3.6,1C349,50.2,350.1,51,351.1,52.1z"/>
	<path class="st0" d="M146.4,124.5c0,1.4-0.3,2.8-0.9,4.1c-0.6,1.3-1.5,2.4-2.6,3.4s-2.4,1.8-4,2.4s-3.2,0.9-5.1,0.9
		c-1.7,0-3.2-0.1-4.5-0.3s-2.6-0.5-3.7-0.9c-1.2-0.4-2.3-1-3.4-1.6c-1.1-0.7-2.2-1.5-3.3-2.4l5.3-5.3c1.5,1.3,3,2.2,4.5,2.7
		c1.5,0.5,3.1,0.8,4.8,0.8c0.7,0,1.4-0.1,2-0.3s1.2-0.5,1.6-0.8c0.5-0.4,0.8-0.8,1.1-1.2c0.3-0.5,0.4-1,0.4-1.6s-0.1-1.1-0.3-1.6
		s-0.6-0.9-1.2-1.4c-0.6-0.4-1.4-0.9-2.4-1.4s-2.3-1-3.9-1.6c-1.4-0.5-2.8-1.1-4.1-1.7c-1.3-0.7-2.4-1.4-3.4-2.4
		c-1-0.9-1.8-2-2.4-3.3c-0.6-1.2-0.9-2.7-0.9-4.4c0-1.6,0.3-3.1,1-4.5s1.6-2.5,2.7-3.5s2.5-1.7,4-2.3c1.5-0.5,3.2-0.8,4.9-0.8
		c2.9,0,5.4,0.4,7.4,1.2c2,0.8,3.8,1.9,5.4,3.4l-5.2,5.2c-1-0.9-2-1.6-3.2-2.1s-2.6-0.7-4.2-0.7c-0.7,0-1.4,0.1-2,0.3
		s-1.2,0.5-1.6,0.9c-0.4,0.4-0.8,0.8-1.1,1.3s-0.4,1-0.4,1.6s0.1,1.2,0.4,1.7s0.7,1,1.3,1.4c0.6,0.5,1.4,0.9,2.4,1.4s2.3,1,3.8,1.5
		c1.9,0.7,3.6,1.4,4.9,2.2c1.4,0.8,2.5,1.7,3.4,2.6c0.9,1,1.5,2.1,1.9,3.3C146.2,121.7,146.4,123,146.4,124.5z"/>
	<path class="st0" d="M166.2,134c-0.7,0.4-1.5,0.8-2.4,1s-1.9,0.3-2.8,0.3c-1.6,0-3-0.2-4.1-0.6c-1.1-0.4-2-1-2.7-1.8
		s-1.2-1.9-1.5-3.2s-0.5-2.8-0.5-4.5V113h-3.6v-2.6c2.2-1.1,4.1-2.7,5.7-4.7c1.5-2,2.5-4.3,2.9-7.1h2v8.1h7v6.2h-7v12.7
		c0,1.4,0.3,2.3,0.9,2.8c0.6,0.4,1.3,0.7,2.2,0.7c0.5,0,1.2-0.1,2-0.3s1.4-0.5,2-1L166.2,134L166.2,134z"/>
	<path class="st0" d="M194.9,134.6H188v-2.1c-0.4,0.4-1,0.8-1.6,1.2c-0.6,0.3-1.2,0.6-1.9,0.9c-0.7,0.2-1.3,0.4-2,0.6
		c-0.7,0.1-1.3,0.2-1.9,0.2c-1.4,0-2.8-0.2-4.1-0.7c-1.3-0.4-2.4-1.1-3.4-2.1c-1-0.9-1.8-2.1-2.4-3.6c-0.6-1.5-0.9-3.2-0.9-5.2V107
		h6.9v16.5c0,1,0.2,1.9,0.5,2.6s0.7,1.4,1.2,1.8c0.5,0.5,1.1,0.9,1.7,1.1c0.7,0.2,1.3,0.4,2,0.4c2.2,0,4.2-0.8,5.8-2.3v-20.2h6.9
		L194.9,134.6L194.9,134.6z"/>
	<path class="st0" d="M226.3,134.6h-7v-1.4c-0.9,0.7-1.9,1.3-2.9,1.6s-2.2,0.5-3.4,0.5c-2,0-3.7-0.4-5.4-1.2c-1.6-0.8-3-1.8-4.2-3.2
		c-1.2-1.3-2.1-2.9-2.8-4.6c-0.7-1.8-1-3.6-1-5.6c0-2.1,0.4-4,1.1-5.8c0.8-1.8,1.8-3.3,3-4.7c1.2-1.3,2.7-2.3,4.3-3.1
		s3.2-1.1,4.9-1.1c1.2,0,2.3,0.2,3.5,0.5c1.1,0.3,2.1,0.8,2.9,1.4V94.8h7L226.3,134.6L226.3,134.6z M219.4,127.2v-13.3
		c-0.6-0.4-1.4-0.8-2.4-1.2c-1-0.3-1.8-0.5-2.6-0.5c-1.2,0-2.2,0.2-3.2,0.6c-0.9,0.4-1.8,1-2.5,1.7s-1.3,1.7-1.6,2.7
		c-0.4,1.1-0.6,2.2-0.6,3.5c0,1.2,0.2,2.4,0.6,3.4c0.4,1,0.9,1.9,1.6,2.7c0.7,0.8,1.5,1.3,2.4,1.8c0.9,0.4,2,0.6,3.1,0.6
		C216.1,129.2,217.8,128.5,219.4,127.2z"/>
	<path class="st0" d="M239.3,102h-7.2v-7.2h7.2V102z M239.2,134.6h-7v-27.8h7V134.6z"/>
	<path class="st0" d="M274.2,120.7c0,2.1-0.4,4-1.2,5.8c-0.8,1.8-1.8,3.3-3.2,4.6c-1.3,1.3-2.9,2.3-4.7,3.1
		c-1.8,0.8-3.7,1.1-5.8,1.1c-2,0-4-0.4-5.8-1.1c-1.8-0.8-3.4-1.8-4.7-3.1s-2.4-2.9-3.2-4.6c-0.8-1.8-1.2-3.7-1.2-5.7
		s0.4-3.9,1.2-5.7c0.8-1.8,1.8-3.3,3.2-4.7c1.3-1.3,2.9-2.4,4.7-3.1c1.8-0.8,3.7-1.1,5.7-1.1s4,0.4,5.8,1.1c1.8,0.8,3.4,1.8,4.7,3.1
		c1.3,1.3,2.4,2.8,3.2,4.6C273.8,116.8,274.2,118.7,274.2,120.7z M267.3,120.7c0-1.2-0.2-2.3-0.6-3.3s-1-1.9-1.7-2.7
		c-0.7-0.8-1.6-1.4-2.5-1.8s-2-0.6-3.1-0.6s-2.1,0.2-3.1,0.6s-1.8,1-2.5,1.8s-1.3,1.7-1.7,2.7s-0.6,2.1-0.6,3.3
		c0,1.2,0.2,2.3,0.6,3.3c0.4,1,1,1.9,1.7,2.7c0.7,0.8,1.6,1.4,2.5,1.8c1,0.4,2,0.6,3.1,0.6s2.1-0.2,3.1-0.6c1-0.4,1.8-1,2.5-1.8
		s1.3-1.7,1.7-2.7S267.3,121.9,267.3,120.7z"/>
</g>
<linearGradient id="SVGID_1_" gradientUnits="userSpaceOnUse" x1="20.3721" y1="130.6779" x2="86.375" y2="64.675" gradientTransform="matrix(1 0 0 -1 0 148)">
	<stop  offset="0" style="stop-color:#DC55FF"/>
	<stop  offset="0.1057" style="stop-color:#D359FD"/>
	<stop  offset="0.2816" style="stop-color:#B962F8"/>
	<stop  offset="0.5059" style="stop-color:#9072EF"/>
	<stop  offset="0.7671" style="stop-color:#5787E3"/>
	<stop  offset="1" style="stop-color:#1E9CD7"/>
</linearGradient>
<path class="st1" d="M58.6,33.8c-12.7,0-23.2,9.5-24.9,21.7H17.4v7.2h16.4C35.6,74.8,46,84,58.6,84c13.8,0,25.1-11.3,25.1-25.1
	S72.4,33.8,58.6,33.8z M58.6,76.9c-9.9,0-17.9-8-17.9-17.9s8-17.9,17.9-17.9s17.9,8,17.9,17.9S68.5,76.9,58.6,76.9z M107,55.6H94.8
	C93.2,37,77.6,22.4,58.6,22.4l0,0v7.2l0,0c16.1,0,29.1,13,29.1,29.1s-13,29.1-29.1,29.1l0,0V95l0,0c18.7,0,34.1-14.1,36.1-32.3H107
	V55.6z M58.6,50.3c4.5,0,8.1,3.6,8.1,8.1s-3.6,8.1-8.1,8.1s-8.1-3.6-8.1-8.1S54.1,50.3,58.6,50.3z M3.9,46c4.7-20.6,20.6-36.9,41-42
	v6.2C27.8,15.1,14.5,28.8,10.1,46H3.9z M15.5,46c4.1-14.4,15.2-25.8,29.4-30.3v5C33.4,24.9,24.3,34.3,20.5,46H15.5z M45.5,26.7V32
	l-0.3,0.2c-5.9,3-10.7,8-13.4,14.1l-0.2,0.4h-5.2l0.3-0.8c3.3-8.2,9.8-15,17.9-18.7L45.5,26.7z"/>
</svg>
